# Blender v2.90.1 OBJ File: 'iso_64x64_new_object.blend'
# www.blender.org
mtllib box.mtl
o Cube_Cube.017
v -0.250000 0.000000 0.250000
v -0.250000 0.500000 0.250000
v -0.250000 0.000000 -0.250000
v -0.250000 0.500000 -0.250000
v 0.250000 0.000000 0.250000
v 0.250000 0.500000 0.250000
v 0.250000 0.000000 -0.250000
v 0.250000 0.500000 -0.250000
v -0.250000 0.000000 -0.125000
v -0.250000 0.000000 0.000000
v -0.250000 0.000000 0.125000
v -0.250000 0.125000 0.250000
v -0.250000 0.250000 0.250000
v -0.250000 0.375000 0.250000
v -0.250000 0.500000 0.125000
v -0.250000 0.500000 0.000000
v -0.250000 0.500000 -0.125000
v -0.250000 0.375000 -0.250000
v -0.250000 0.250000 -0.250000
v -0.250000 0.125000 -0.250000
v 0.125000 0.000000 -0.250000
v 0.000000 0.000000 -0.250000
v -0.125000 0.000000 -0.250000
v -0.125000 0.500000 -0.250000
v 0.000000 0.500000 -0.250000
v 0.125000 0.500000 -0.250000
v 0.250000 0.375000 -0.250000
v 0.250000 0.250000 -0.250000
v 0.250000 0.125000 -0.250000
v 0.250000 0.000000 0.125000
v 0.250000 0.000000 0.000000
v 0.250000 0.000000 -0.125000
v 0.250000 0.500000 -0.125000
v 0.250000 0.500000 0.000000
v 0.250000 0.500000 0.125000
v 0.250000 0.375000 0.250000
v 0.250000 0.250000 0.250000
v 0.250000 0.125000 0.250000
v -0.125000 0.000000 0.250000
v 0.000000 0.000000 0.250000
v 0.125000 0.000000 0.250000
v 0.125000 0.500000 0.250000
v 0.000000 0.500000 0.250000
v -0.125000 0.500000 0.250000
v -0.250000 0.125000 0.125000
v -0.250000 0.250000 0.125000
v -0.250000 0.375000 0.125000
v -0.250000 0.125000 0.000000
v -0.250000 0.250000 0.000000
v -0.250000 0.375000 0.000000
v -0.250000 0.125000 -0.125000
v -0.250000 0.250000 -0.125000
v -0.250000 0.375000 -0.125000
v -0.125000 0.125000 -0.250000
v -0.125000 0.250000 -0.250000
v -0.125000 0.375000 -0.250000
v -0.000000 0.125000 -0.250000
v -0.000000 0.250000 -0.250000
v -0.000000 0.375000 -0.250000
v 0.125000 0.125000 -0.250000
v 0.125000 0.250000 -0.250000
v 0.125000 0.375000 -0.250000
v 0.250000 0.125000 -0.125000
v 0.250000 0.250000 -0.125000
v 0.250000 0.375000 -0.125000
v 0.250000 0.125000 -0.000000
v 0.250000 0.250000 -0.000000
v 0.250000 0.375000 -0.000000
v 0.250000 0.125000 0.125000
v 0.250000 0.250000 0.125000
v 0.250000 0.375000 0.125000
v 0.125000 0.125000 0.250000
v 0.125000 0.250000 0.250000
v 0.125000 0.375000 0.250000
v 0.000000 0.125000 0.250000
v 0.000000 0.250000 0.250000
v 0.000000 0.375000 0.250000
v -0.125000 0.125000 0.250000
v -0.125000 0.250000 0.250000
v -0.125000 0.375000 0.250000
v -0.125000 0.000000 -0.125000
v 0.000000 0.000000 -0.125000
v 0.125000 0.000000 -0.125000
v -0.125000 0.000000 -0.000000
v 0.000000 0.000000 -0.000000
v 0.125000 0.000000 -0.000000
v -0.125000 0.000000 0.125000
v 0.000000 0.000000 0.125000
v 0.125000 0.000000 0.125000
v 0.125000 0.500000 -0.125000
v -0.000000 0.500000 -0.125000
v -0.125000 0.500000 -0.125000
v 0.125000 0.500000 -0.000000
v -0.000000 0.500000 -0.000000
v -0.125000 0.500000 -0.000000
v 0.125000 0.500000 0.125000
v 0.000000 0.500000 0.125000
v -0.125000 0.500000 0.125000
vt 0.625000 0.530931
vt 0.625000 0.668559
vt 0.750000 0.612372
vt 0.750000 0.474745
vt 0.625000 0.806186
vt 0.750000 0.750000
vt 0.875000 0.556186
vt 0.875000 0.418559
vt 0.875000 0.693814
vt 0.500000 0.449490
vt 0.500000 0.587117
vt 0.625000 0.393304
vt 0.500000 0.724745
vt 0.500000 0.862372
vt 0.500000 1.000000
vt 0.625000 0.943814
vt 0.750000 0.887628
vt 0.875000 0.831441
vt 1.000000 0.775255
vt 1.000000 0.637628
vt 1.000000 0.500000
vt 1.000000 0.362373
vt 0.875000 0.280931
vt 1.000000 0.224745
vt 0.750000 0.337117
vt 0.875000 0.306186
vt 0.875000 0.443814
vt 0.750000 0.387628
vt 0.750000 0.250000
vt 0.875000 0.581441
vt 0.750000 0.525255
vt 0.625000 0.331441
vt 0.625000 0.193814
vt 0.625000 0.469069
vt 0.875000 0.168559
vt 0.875000 0.719069
vt 0.750000 0.662883
vt 0.625000 0.606697
vt 0.500000 0.550510
vt 0.500000 0.412882
vt 0.500000 0.275255
vt 0.500000 0.137628
vt 0.625000 0.056186
vt 0.500000 0.000000
vt 0.750000 0.112373
vt 0.375000 0.193814
vt 0.375000 0.331441
vt 0.250000 0.387628
vt 0.250000 0.250000
vt 0.375000 0.469069
vt 0.250000 0.525255
vt 0.125000 0.443814
vt 0.125000 0.306186
vt 0.125000 0.581441
vt 0.375000 0.056186
vt 0.375000 0.606697
vt 0.250000 0.662883
vt 0.125000 0.719069
vt 0.000000 0.775255
vt 0.000000 0.637628
vt 0.000000 0.500000
vt 0.000000 0.362373
vt 0.125000 0.168559
vt 0.000000 0.224745
vt 0.250000 0.112373
vt 0.125000 0.418559
vt 0.125000 0.556186
vt 0.250000 0.612372
vt 0.250000 0.474745
vt 0.125000 0.693814
vt 0.250000 0.750000
vt 0.375000 0.668559
vt 0.375000 0.530931
vt 0.375000 0.806186
vt 0.125000 0.280931
vt 0.125000 0.831441
vt 0.250000 0.887628
vt 0.375000 0.943814
vt 0.375000 0.393304
vt 0.250000 0.337117
vt 0.750000 0.224745
vt 0.625000 0.168559
vt 0.500000 0.224745
vt 0.625000 0.280931
vt 0.500000 0.112373
vt 0.375000 0.168559
vt 0.375000 0.280931
vt 0.500000 0.337117
vt 0.250000 0.224745
vt 0.500000 0.662883
vt 0.625000 0.719069
vt 0.500000 0.775255
vt 0.375000 0.719069
vt 0.750000 0.775255
vt 0.625000 0.831441
vt 0.375000 0.831441
vt 0.250000 0.775255
vt 0.500000 0.887627
vn -1.0000 0.0000 0.0000
vn -0.0000 0.0000 -1.0000
vn 1.0000 0.0000 -0.0000
vn 0.0000 0.0000 1.0000
vn 0.0000 -1.0000 0.0000
vn 0.0000 1.0000 -0.0000
usemtl None
s off
f 45/1/1 46/2/1 49/3/1 48/4/1
f 46/2/1 47/5/1 50/6/1 49/3/1
f 48/4/1 49/3/1 52/7/1 51/8/1
f 49/3/1 50/6/1 53/9/1 52/7/1
f 1/10/1 12/11/1 45/1/1 11/12/1
f 12/11/1 13/13/1 46/2/1 45/1/1
f 13/13/1 14/14/1 47/5/1 46/2/1
f 14/14/1 2/15/1 15/16/1 47/5/1
f 47/5/1 15/16/1 16/17/1 50/6/1
f 50/6/1 16/17/1 17/18/1 53/9/1
f 53/9/1 17/18/1 4/19/1 18/20/1
f 52/7/1 53/9/1 18/20/1 19/21/1
f 51/8/1 52/7/1 19/21/1 20/22/1
f 9/23/1 51/8/1 20/22/1 3/24/1
f 10/25/1 48/4/1 51/8/1 9/23/1
f 11/12/1 45/1/1 48/4/1 10/25/1
f 54/26/2 55/27/2 58/28/2 57/29/2
f 55/27/2 56/30/2 59/31/2 58/28/2
f 57/29/2 58/28/2 61/32/2 60/33/2
f 58/28/2 59/31/2 62/34/2 61/32/2
f 3/24/2 20/22/2 54/26/2 23/35/2
f 20/22/2 19/21/2 55/27/2 54/26/2
f 19/21/2 18/20/2 56/30/2 55/27/2
f 18/20/2 4/19/2 24/36/2 56/30/2
f 56/30/2 24/36/2 25/37/2 59/31/2
f 59/31/2 25/37/2 26/38/2 62/34/2
f 62/34/2 26/38/2 8/39/2 27/40/2
f 61/32/2 62/34/2 27/40/2 28/41/2
f 60/33/2 61/32/2 28/41/2 29/42/2
f 21/43/2 60/33/2 29/42/2 7/44/2
f 22/45/2 57/29/2 60/33/2 21/43/2
f 23/35/2 54/26/2 57/29/2 22/45/2
f 63/46/3 64/47/3 67/48/3 66/49/3
f 64/47/3 65/50/3 68/51/3 67/48/3
f 66/49/3 67/48/3 70/52/3 69/53/3
f 67/48/3 68/51/3 71/54/3 70/52/3
f 7/44/3 29/42/3 63/46/3 32/55/3
f 29/42/3 28/41/3 64/47/3 63/46/3
f 28/41/3 27/40/3 65/50/3 64/47/3
f 27/40/3 8/39/3 33/56/3 65/50/3
f 65/50/3 33/56/3 34/57/3 68/51/3
f 68/51/3 34/57/3 35/58/3 71/54/3
f 71/54/3 35/58/3 6/59/3 36/60/3
f 70/52/3 71/54/3 36/60/3 37/61/3
f 69/53/3 70/52/3 37/61/3 38/62/3
f 30/63/3 69/53/3 38/62/3 5/64/3
f 31/65/3 66/49/3 69/53/3 30/63/3
f 32/55/3 63/46/3 66/49/3 31/65/3
f 72/66/4 73/67/4 76/68/4 75/69/4
f 73/67/4 74/70/4 77/71/4 76/68/4
f 75/69/4 76/68/4 79/72/4 78/73/4
f 76/68/4 77/71/4 80/74/4 79/72/4
f 5/64/4 38/62/4 72/66/4 41/75/4
f 38/62/4 37/61/4 73/67/4 72/66/4
f 37/61/4 36/60/4 74/70/4 73/67/4
f 36/60/4 6/59/4 42/76/4 74/70/4
f 74/70/4 42/76/4 43/77/4 77/71/4
f 77/71/4 43/77/4 44/78/4 80/74/4
f 80/74/4 44/78/4 2/15/4 14/14/4
f 79/72/4 80/74/4 14/14/4 13/13/4
f 78/73/4 79/72/4 13/13/4 12/11/4
f 39/79/4 78/73/4 12/11/4 1/10/4
f 40/80/4 75/69/4 78/73/4 39/79/4
f 41/75/4 72/66/4 75/69/4 40/80/4
f 81/81/5 82/82/5 85/83/5 84/84/5
f 82/82/5 83/85/5 86/86/5 85/83/5
f 84/84/5 85/83/5 88/87/5 87/88/5
f 85/83/5 86/86/5 89/89/5 88/87/5
f 3/24/5 23/35/5 81/81/5 9/23/5
f 23/35/5 22/45/5 82/82/5 81/81/5
f 22/45/5 21/43/5 83/85/5 82/82/5
f 21/43/5 7/44/5 32/55/5 83/85/5
f 83/85/5 32/55/5 31/65/5 86/86/5
f 86/86/5 31/65/5 30/63/5 89/89/5
f 89/89/5 30/63/5 5/64/5 41/75/5
f 88/87/5 89/89/5 41/75/5 40/80/5
f 87/88/5 88/87/5 40/80/5 39/79/5
f 11/12/5 87/88/5 39/79/5 1/10/5
f 10/25/5 84/84/5 87/88/5 11/12/5
f 9/23/5 81/81/5 84/84/5 10/25/5
f 90/90/6 91/91/6 94/92/6 93/93/6
f 91/91/6 92/94/6 95/95/6 94/92/6
f 93/93/6 94/92/6 97/96/6 96/97/6
f 94/92/6 95/95/6 98/98/6 97/96/6
f 8/39/6 26/38/6 90/90/6 33/56/6
f 26/38/6 25/37/6 91/91/6 90/90/6
f 25/37/6 24/36/6 92/94/6 91/91/6
f 24/36/6 4/19/6 17/18/6 92/94/6
f 92/94/6 17/18/6 16/17/6 95/95/6
f 95/95/6 16/17/6 15/16/6 98/98/6
f 98/98/6 15/16/6 2/15/6 44/78/6
f 97/96/6 98/98/6 44/78/6 43/77/6
f 96/97/6 97/96/6 43/77/6 42/76/6
f 35/58/6 96/97/6 42/76/6 6/59/6
f 34/57/6 93/93/6 96/97/6 35/58/6
f 33/56/6 90/90/6 93/93/6 34/57/6
