# Blender v2.90.1 OBJ File: 'iso_64x64_multitile_export-ready.blend'
# www.blender.org
mtllib block_halve_01.mtl
o Cube.005
v 0.500000 0.408248 -0.500000
v 0.500000 0.000000 -0.500000
v 0.500000 0.408248 0.500000
v 0.500000 0.000000 0.500000
v -0.500000 0.408248 -0.500000
v -0.500000 0.000000 -0.500000
v -0.500000 0.408248 0.500000
v -0.500000 0.000000 0.500000
vt 0.099928 0.416928
vt 0.199928 0.500262
vt 0.099928 0.583595
vt -0.000072 0.500262
vt 0.161773 0.308529
vt 0.208555 0.308529
vt 0.208555 0.230559
vt 0.161773 0.230559
vt 0.199928 0.416928
vt 0.099928 0.333595
vt -0.000072 0.416928
vt 0.161773 0.253629
vt 0.161773 0.285460
vt 0.208555 0.285460
vt 0.208555 0.253629
vt 0.208555 0.253629
vt 0.208555 0.285460
vn 0.0000 1.0000 0.0000
vn 0.0000 -1.0000 0.0000
vn 0.0000 0.0000 -1.0000
vn 1.0000 0.0000 0.0000
vn -1.0000 0.0000 0.0000
vn 0.0000 0.0000 1.0000
usemtl Material
s off
f 1/1/1 5/2/1 7/3/1 3/4/1
f 6/5/2 2/6/2 4/7/2 8/8/2
f 6/9/3 5/2/3 1/1/3 2/10/3
f 2/10/4 1/1/4 3/4/4 4/11/4
f 8/12/5 7/13/5 5/14/5 6/15/5
f 4/16/6 3/17/6 7/13/6 8/12/6
