# Blender v2.90.1 OBJ File: 'iso_64x64_multitile_export-ready.blend'
# www.blender.org
mtllib block_flat_02.mtl
o Cube.011
v 0.500000 0.000000 -0.500000
v 0.500000 0.000000 0.500000
v -0.500000 0.000000 -0.500000
v -0.500000 0.408248 0.500000
v -0.500000 0.000000 0.500000
vt 0.300028 0.000139
vt 0.400028 0.083473
vt 0.300028 0.250139
vt 0.168011 0.318925
vt 0.214793 0.318925
vt 0.214793 0.240955
vt 0.168011 0.240955
vt 0.168011 0.261056
vt 0.168011 0.292887
vt 0.214793 0.261056
vt 0.214793 0.261056
vt 0.200028 0.083473
vn 0.0000 0.9258 -0.3780
vn 0.0000 -1.0000 0.0000
vn -1.0000 0.0000 0.0000
vn 0.0000 0.0000 1.0000
vn 0.3780 0.9258 0.0000
usemtl Material
s off
f 1/1/1 3/2/1 4/3/1
f 3/4/2 1/5/2 2/6/2 5/7/2
f 5/8/3 4/9/3 3/10/3
f 2/11/4 4/9/4 5/8/4
f 2/12/5 1/1/5 4/3/5
