# Blender v2.90.1 OBJ File: 'iso_64x64_multitile_export-ready.blend'
# www.blender.org
mtllib block_full_04.mtl
o Cube.003
v 0.500000 0.000000 -0.500000
v 0.500000 0.000000 0.500000
v -0.500000 0.816497 -0.500000
v -0.500000 0.000000 -0.500000
v -0.500000 0.816497 0.500000
v -0.500000 0.000000 0.500000
vt 0.699899 0.666953
vt 0.799899 0.916953
vt 0.699899 1.000287
vt 0.599899 0.750287
vt 0.216352 0.248323
vt 0.169570 0.311986
vt 0.169570 0.248323
vt 0.161773 0.248323
vt 0.161773 0.311986
vt 0.208555 0.311986
vt 0.208555 0.248323
vt 0.169570 0.308529
vt 0.216352 0.308529
vt 0.216352 0.230559
vt 0.169570 0.230559
vt 0.799899 0.750287
vn 0.6325 0.7746 0.0000
vn 0.0000 0.0000 1.0000
vn -1.0000 0.0000 0.0000
vn 0.0000 -1.0000 0.0000
vn 0.0000 0.0000 -1.0000
usemtl Material
s off
f 1/1/1 3/2/1 5/3/1 2/4/1
f 2/5/2 5/6/2 6/7/2
f 6/8/3 5/9/3 3/10/3 4/11/3
f 4/12/4 1/13/4 2/14/4 6/15/4
f 4/16/5 3/2/5 1/1/5
