# Blender v2.90.1 OBJ File: 'iso_64x64_multitile_export-ready.blend'
# www.blender.org
mtllib block_halve_03.mtl
o Cube.007
v 0.500000 0.408248 -0.500000
v 0.500000 0.000000 -0.500000
v 0.500000 0.816497 0.500000
v 0.500000 0.000000 0.500000
v -0.500000 0.408248 -0.500000
v -0.500000 0.000000 -0.500000
v -0.500000 0.816497 0.500000
v -0.500000 0.000000 0.500000
v -0.500000 0.408248 0.500000
v 0.500000 0.408248 0.500000
vt 0.499928 0.416928
vt 0.599928 0.500262
vt 0.499928 0.666928
vt 0.399928 0.583595
vt 0.208555 0.274260
vt 0.208555 0.306091
vt 0.161773 0.306091
vt 0.161773 0.274260
vt 0.166105 0.274260
vt 0.166105 0.306091
vt 0.212887 0.274260
vt 0.161773 0.315749
vt 0.208555 0.315749
vt 0.208555 0.237779
vt 0.161773 0.237779
vt 0.399928 0.500262
vt 0.599928 0.416928
vt 0.499928 0.333595
vt 0.399928 0.416928
vt 0.166105 0.242429
vt 0.212887 0.242429
vt 0.208555 0.242429
vt 0.161773 0.242429
vn 0.0000 0.9258 -0.3780
vn 0.0000 0.0000 1.0000
vn -1.0000 0.0000 0.0000
vn 0.0000 -1.0000 0.0000
vn 1.0000 0.0000 0.0000
vn 0.0000 0.0000 -1.0000
usemtl Material
s off
f 1/1/1 5/2/1 7/3/1 3/4/1
f 10/5/2 3/6/2 7/7/2 9/8/2
f 9/9/3 7/10/3 5/11/3
f 6/12/4 2/13/4 4/14/4 8/15/4
f 1/1/5 3/4/5 10/16/5
f 6/17/6 5/2/6 1/1/6 2/18/6
f 2/18/5 1/1/5 10/16/5 4/19/5
f 8/20/3 9/9/3 5/11/3 6/21/3
f 4/22/2 10/5/2 9/8/2 8/23/2
