# Blender v2.90.1 OBJ File: 'iso_64x64_multitile_export-ready.blend'
# www.blender.org
mtllib block_flat_05.mtl
o Cube.014
v 0.500000 0.000000 -0.500000
v 0.500000 0.408248 0.500000
v 0.500000 0.000000 0.500000
v -0.500000 0.408248 -0.500000
v -0.500000 0.000000 -0.500000
v -0.500000 0.408248 0.500000
v -0.500000 0.000000 0.500000
vt 1.000028 0.166806
vt 0.900028 0.250139
vt 0.800028 0.166806
vt 0.162887 0.310386
vt 0.209669 0.310386
vt 0.209669 0.232416
vt 0.162887 0.232416
vt 1.000028 0.083473
vt 0.900028 0.000139
vt 0.800028 0.083473
vt 0.162887 0.254386
vt 0.162887 0.286218
vt 0.209669 0.286218
vt 0.209669 0.254386
vt 0.209669 0.254386
vt 0.209669 0.286218
vn 0.0000 1.0000 0.0000
vn 0.0000 -1.0000 0.0000
vn 0.0000 0.0000 -1.0000
vn 1.0000 0.0000 0.0000
vn -1.0000 0.0000 0.0000
vn 0.0000 0.0000 1.0000
vn 0.3536 0.8660 -0.3536
usemtl Material
s off
f 4/1/1 6/2/1 2/3/1
f 5/4/2 1/5/2 3/6/2 7/7/2
f 5/8/3 4/1/3 1/9/3
f 1/9/4 2/3/4 3/10/4
f 7/11/5 6/12/5 4/13/5 5/14/5
f 3/15/6 2/16/6 6/12/6 7/11/6
f 1/9/7 4/1/7 2/3/7
