# Blender v2.90.1 OBJ File: 'iso_64x64_multitile_export-ready.blend'
# www.blender.org
mtllib block_full_01.mtl
o Cube
v 0.500000 0.816497 -0.500000
v 0.500000 0.000000 -0.500000
v 0.500000 0.816497 0.500000
v 0.500000 0.000000 0.500000
v -0.500000 0.816497 -0.500000
v -0.500000 0.000000 -0.500000
v -0.500000 0.816497 0.500000
v -0.500000 0.000000 0.500000
vt 0.099899 0.833620
vt 0.199899 0.916953
vt 0.099899 1.000287
vt -0.000101 0.916953
vt 0.208555 0.237713
vt 0.208555 0.301375
vt 0.161773 0.301375
vt 0.161773 0.237713
vt 0.208555 0.301375
vt 0.208555 0.237713
vt 0.161773 0.308529
vt 0.208555 0.308529
vt 0.208555 0.230559
vt 0.161773 0.230559
vt 0.099899 0.666953
vt -0.000101 0.750287
vt 0.199899 0.750287
vn 0.0000 1.0000 0.0000
vn 0.0000 0.0000 1.0000
vn -1.0000 0.0000 0.0000
vn 0.0000 -1.0000 0.0000
vn 1.0000 0.0000 0.0000
vn 0.0000 0.0000 -1.0000
usemtl Material
s off
f 1/1/1 5/2/1 7/3/1 3/4/1
f 4/5/2 3/6/2 7/7/2 8/8/2
f 8/8/3 7/7/3 5/9/3 6/10/3
f 6/11/4 2/12/4 4/13/4 8/14/4
f 2/15/5 1/1/5 3/4/5 4/16/5
f 6/17/6 5/2/6 1/1/6 2/15/6
